<?xml version="1.0" encoding="iso-8859-1"?>
<!-- Generator: Adobe Illustrator 19.0.0, SVG Export Plug-In . SVG Version: 6.00 Build 0)  -->
<svg xmlns="http://www.w3.org/2000/svg" xmlns:xlink="http://www.w3.org/1999/xlink" version="1.1" id="Layer_1" x="0px" y="0px" viewBox="0 0 485 485" style="enable-background:new 0 0 485 485;" xml:space="preserve" width="512px" height="512px">
<g>
	<path d="M180.428,304.197c36.332,36.332,80.711,64.548,132.199,85.521c35.751,14.563,65.944-0.643,78.29-37.357   c2.216-6.591,2.37-13.043-0.014-19.522c-5.76-15.657-60.331-55.305-76.661-56.194c-12.523-0.681-19.306,7.829-25.037,16.275   c-10.838,15.953-24.576,16.042-39.899,9.224c-15.419-6.862-28.91-15.662-40.037-26.79c-11.127-11.127-19.928-24.618-26.79-40.037   c-6.818-15.323-6.729-29.061,9.225-39.898c8.446-5.731,16.955-12.514,16.274-25.037c-0.889-16.329-40.537-70.901-56.194-76.66   c-6.479-2.384-12.931-2.229-19.522-0.014c-36.714,12.346-51.92,42.54-37.357,78.29C115.88,223.486,144.096,267.865,180.428,304.197   z" fill="#FFFFFF"/>
	<path d="M251.163,112.035c8.003-1.27,16.22-1.554,24.42-0.841c25.271,2.19,49.319,13.528,67.715,31.924   c17.844,17.843,28.819,40.917,30.905,64.971c0.712,8.217,0.366,16.456-1.028,24.484c-0.993,5.714,2.835,11.15,8.548,12.142   c0.608,0.105,1.213,0.157,1.81,0.157c5.01,0,9.445-3.6,10.332-8.705c1.705-9.813,2.129-19.87,1.261-29.892   c-2.513-28.971-15.645-56.674-36.978-78.007c-21.886-21.885-50.563-35.379-80.75-37.997c-9.903-0.858-19.837-0.515-29.523,1.022   c-5.728,0.909-9.634,6.288-8.726,12.016C240.056,109.036,245.429,112.942,251.163,112.035z" fill="#FFFFFF"/>
	<path d="M348.181,235.643c0.449,0.057,0.895,0.084,1.337,0.084c5.209,0,9.729-3.875,10.402-9.178   c0.722-5.679,0.834-11.482,0.335-17.25c-1.803-20.777-11.341-40.765-26.857-56.281c-16.068-16.069-37.029-25.97-59.022-27.877   c-6.19-0.535-12.405-0.415-18.474,0.36c-5.752,0.735-9.819,5.994-9.084,11.747c0.734,5.753,6.009,9.815,11.746,9.084   c4.587-0.585,9.298-0.676,13.997-0.269c17.076,1.48,33.408,9.224,45.987,21.804c12.028,12.027,19.409,27.385,20.785,43.245   c0.371,4.285,0.288,8.588-0.245,12.791C338.357,229.656,342.428,234.912,348.181,235.643z" fill="#FFFFFF"/>
	<path d="M314.272,229.411c0.242,0.017,0.483,0.025,0.724,0.025c5.474,0,10.088-4.245,10.465-9.787   c0.164-2.402,0.139-4.866-0.074-7.327c-2.333-26.909-26.067-49.887-54.034-52.312c-2.282-0.197-4.567-0.25-6.796-0.159   c-5.795,0.239-10.298,5.13-10.059,10.924s5.137,10.29,10.924,10.058c1.339-0.055,2.725-0.022,4.117,0.099   c17.503,1.517,33.497,16.723,34.926,33.203c0.12,1.386,0.135,2.761,0.045,4.087C304.115,224.008,308.486,229.018,314.272,229.411z" fill="#FFFFFF"/>
	<path d="M0,0v485h485V0H0z M455,455H30V30h425V455z" fill="#FFFFFF"/>
</g>
<g>
</g>
<g>
</g>
<g>
</g>
<g>
</g>
<g>
</g>
<g>
</g>
<g>
</g>
<g>
</g>
<g>
</g>
<g>
</g>
<g>
</g>
<g>
</g>
<g>
</g>
<g>
</g>
<g>
</g>
</svg>
